<svg xmlns="http://www.w3.org/2000/svg" width="32" height="24" viewBox="0 0 32 24">
  <g fill="none" fill-rule="evenodd" stroke="#FEDE10" stroke-width="3">
    <path d="M0,23.9827714 L0,20 L0,20 C-6.76353751e-17,19.4477153 0.44771525,19 1,19 L8.94909685,19" transform="matrix(1 0 0 -1 0 42.983)"/>
    <path d="M23,23.9827714 L23,20 L23,20 C23,19.4477153 23.4477153,19 24,19 L31.9490969,19" transform="rotate(180 27.475 21.491)"/>
    <path d="M23,4.98277142 L23,1 L23,1 C23,0.44771525 23.4477153,1.01453063e-16 24,0 L31.9490969,0" transform="matrix(-1 0 0 1 54.95 0)"/>
    <path d="M0,4.98277142 L0,1 L0,1 C-6.76353751e-17,0.44771525 0.44771525,1.01453063e-16 1,0 L8.94909685,0"/>
  </g>
</svg>
