<?xml version="1.0" encoding="utf-8"?>
<!-- Generator: Adobe Illustrator 22.0.1, SVG Export Plug-In . SVG Version: 6.00 Build 0)  -->
<svg version="1.1" id="Calque_1" xmlns="http://www.w3.org/2000/svg" xmlns:xlink="http://www.w3.org/1999/xlink" x="0px" y="0px"
	 viewBox="0 0 1000 365.7" style="enable-background:new 0 0 1000 365.7;" xml:space="preserve">
<style type="text/css">
	.st0{fill:#FEDE10;}
</style>
<g>
	<g>
		<path class="st0" d="M461.2,180.6c0,6.9-0.7,17.8-1.8,22.9l-141.3-0.2c6.5,21.1,22.1,34.5,43.5,34.6c18.2,0,34.5-8.7,39.6-21.4
			l46.5,0.1l0,21.1c-12,26.9-48,43.9-87.2,43.8c-61.4-0.1-103.4-41.9-103.4-101.8c0.1-58.5,43-99.1,105.1-99
			C420.6,80.7,461.2,121.7,461.2,180.6z M315.2,169.9l87.9,0.1c-0.3-25.8-18.5-45.8-44.2-45.8C334.5,124.1,318.5,142.6,315.2,169.9z
			"/>
		<path class="st0" d="M514,0.2c19.6,0,33.4,13.5,33.4,32.4c0,18.5-13.8,31.9-33.5,31.9c-19.2,0-33-13.5-33-32
			C481,13.5,494.8,0.1,514,0.2z M485.2,88l57.7,0.1l-0.2,186.3l-57.7-0.1L485.2,88z"/>
		<path class="st0" d="M772,180.6l-0.1,96.2c-0.1,52.7-40.8,88.6-100.3,88.5c-48.3-0.1-88.6-23-98.7-56.4l0-23.6l51.2,0.1
			c3.6,21.1,22.1,36.3,45.3,36.4c26.1,0,44.7-19.6,44.7-47.2l0-17.8c-13.8,12.3-33.1,20.3-53.8,20.3c-53.7-0.1-93.6-41.2-93.6-96.7
			c0.1-57.7,43.7-99.5,104-99.4C729.7,81,772.1,122.9,772,180.6z M624.6,181.5c0,28.3,19.2,48.3,46.1,48.4
			c27.2,0,45.8-19.2,45.8-48.2c0-29.4-18.5-49.8-46.1-49.8C643.5,131.8,624.6,152.1,624.6,181.5z"/>
		<path class="st0" d="M997.5,182l-0.1,93l-53-0.1l0-22.2c-15.3,18.9-37.4,29.4-63.2,29.3c-54.1-0.1-91.5-41.2-91.4-100.3
			c0.1-58.5,43-100.5,103.6-100.5C954.1,81.3,997.6,123.5,997.5,182z M847.5,181.8c0,28.7,19.2,49.4,46.1,49.4
			c26.9,0,46.1-20.6,46.2-49.3c0-29.1-19.2-49.8-46.1-49.8C866.9,132.1,847.6,152.7,847.5,181.8z"/>
	</g>
</g>
<g>
	<path class="st0" d="M150.8,206.5c9.3,19.9,28.5,36,52.4,44.2c-7.8,11.9-11,18.3-16,32.4c-24.8-11.4-41.9-26.3-55.9-49
		c-11.7,22.4-29.3,38.6-54.8,50.7c-5.2-10.8-8.6-16.2-14.9-24H40.6v-9.9H29.3v21.1H0c0.9-7.6,1.1-15.5,1.1-28.5V114.1
		c0-7.8-0.2-14-0.6-22.7c5.2,0.6,9.9,0.9,18.1,0.9h30c10.1,0,14.9-0.2,19.9-0.9c-0.4,4.1-0.6,10.8-0.6,19.4v65.6c2.6,0,3.7,0,6.3,0
		h1.3v-50.7c0-8.6-0.2-14.5-0.9-19.2c5.4,0.6,10.8,0.9,20.7,0.9h20.1v-7.6c0-7.1-0.4-13.4-1.1-19.2H148c-1.1,6.9-1.1,8.6-1.1,26.8
		h22.4c9.5,0,14.7-0.2,19.9-0.9c-0.6,4.3-0.9,10.6-0.9,20.5v49.4c6-0.2,7.3-0.4,11.4-0.9v32.1c-7.1-0.9-15.1-1.3-25-1.3H150.8z
		 M29.8,156.2h11v-34.3h-11V156.2z M29.8,220.9h11v-36h-11V220.9z M74,206.5c-1.7,0-3.2,0-6.3,0V244c0,2.6,0,3.9,0,7.1
		c9.5-4.7,15.5-8.6,21.1-14c9.5-8.4,16-18.6,20.1-30.6H74z M113.7,176.5c0.9-14.7,1.3-21.6,1.3-27.8V137h-12.1v39.5H113.7z
		 M159.5,176.5V137h-12.9l-0.4,25.9c-0.2,4.1-0.2,6.9-0.6,13.6H159.5z"/>
</g>
</svg>
