<?xml version="1.0" encoding="utf-8"?>
<!-- Generator: Adobe Illustrator 22.0.1, SVG Export Plug-In . SVG Version: 6.00 Build 0)  -->
<svg version="1.1" id="Calque_1" xmlns="http://www.w3.org/2000/svg" xmlns:xlink="http://www.w3.org/1999/xlink" x="0px" y="0px"
	 viewBox="0 0 1000 340.4" style="enable-background:new 0 0 1000 340.4;" xml:space="preserve">
<style type="text/css">
	.st0{fill:#F2AF29;stroke:#F2AF29;stroke-width:7.9035;stroke-miterlimit:10;}
	.st1{fill:#731DD8;}
</style>
<path class="st0" d="M18,238.3l0-0.6l-2.7-1.5c-2.4-3.6-4.5-7.3-6.6-10.9l1.2-0.3l2.1,0.3l0.3-0.6l2.1-1.8l3.6-0.6l0-2.4
	c-2.4-10-3.6-20.9-3.6-32.1l0-23l-0.3-0.3l0-11.5l-0.3,0l0-26.6c0.6-5.1,0.6-10.6,0.6-16l-0.3-9.7l0.3-2.4l-1.5-3.6l0.3,0l5.4,5.5
	c2.7,3.6,5.1,7.9,6.9,12.1l0.6,0c3,11.2,4.8,23.3,5.1,35.7l-1.2,1.5l0,15.7l0.9,7.9l0.6,3.6l0,12.1c0.3,9.4,1.2,18.8,2.4,27.6
	l3.3,0.3c6.7-1.5,13-2.7,20.3-3.3l6.4,1.8c1.2,2.1,1.8,4.5,1.5,7.6l-6.7,4.8l0,0.3l-2.7,2.1c-9.7,5.4-20,9.4-30.9,11.8
	C22.6,241,20.2,239.8,18,238.3z M92.6,170.3c-0.9,0.6-1.2,1.8-0.9,3l0.9,3.9l0,23l0.3,11.2c-0.3,6.7-0.9,13.6-1.5,20l0.9,7.3
	c-0.9,5.1-3,10-6.1,14.2l-1.8,1.5l-0.3,0l-0.9-0.6l-0.3,1.2l-2.7,0.3l0-0.6l-0.3,0l-0.3-1.2l-4.2-0.6c-3.3-7.6-5.1-15.8-5.7-24.2
	l0.9-6.1l0-15.4l0.9-11.8l-0.3,0l0-24.5l0.3-4.5l-0.3-2.1l0.1-42.7l-0.3-0.3l0-15.4l-0.3,0l0-15.4c0-3-0.3-6.4-1.5-9.4l-2.4,0
	c-8.5,0.6-16.4,2.4-24.5,4.8l-3.3-0.9l-3.9,0.6l-3.6-0.6l0-0.3l0.9-1.5l7.6-6.3l0-0.6c8.2-6,17.3-9.1,27.6-10
	c5.8,2.1,10.6,5.5,14.5,10.3c9.7,7.3,13.3,16.4,11.2,28.2l-0.3,0l0,15.7l0.3,0.3l0,15.1l0.3,3.6l-0.3,0.3l0,15.4
	c-0.6,3-0.9,6.4-0.6,9.4L92.6,170.3z M52,172.6l0-0.6l-0.6,0l0-0.3l-0.9-0.3l0-0.6l-1.5-0.3l0-0.6l-1.5-0.9l-0.9-0.6l0-0.6l-0.9,0
	l-0.9-1.2l-0.9-0.9l0-0.3l-0.9-0.3l0-0.6l-0.6,0l-0.6-0.6l0-0.6l-7-6.4l1.5-0.3l0-1.2l-0.6,0l-0.6-0.6l-2.7-2.1l0-0.6l1.2,0l2.1,0.3
	l0-0.6l-1.2-1.8l1.2,0c10,0.9,18.5,4.9,26,11.8l2.4,1.8l2.1,3l-3,1.5l-0.3,0.9l1.2,2.4l-1.5,0.3l-1.5,3l-3.3,0.6L52,172.6z
	 M92.5,261.7l2.4-3.3l1.2-1.2l1.8-1.8l0.9-1.2l3.6-4.2l0.3,0c14.6-21.8,26.1-45.1,34.6-69.9l-1.2-0.6c-8.2,4.5-17,7.2-26.7,8.1
	c-3.6,0-7-0.9-9.4-2.7l0-0.6l-0.6,0l-0.6-0.6l-1.2-1.5l-0.3-0.9l-0.6,0c-1.8-2.7-3-5.5-4.2-8.2l-1.2-0.3l-0.3-5.8l0.9,0.9
	c1.2-0.3,2.7-0.6,4.2-0.3c2.7,0.6,5.1,0.9,7.6,0.6c6.4-1.2,12.4-3,18.8-5.1l0-1.2c-5.4-17.6-10.9-35.4-15.7-53.3l0.3,0
	c5.4,3.3,11.5,6.4,16.9,9.7l0,0.3l0.6,0l0.9,0.9c5.1,12.1,8.7,24.8,10.9,37.9l1.8,0.3l6.4-2.4c3-12.1,5.5-23.9,7.6-36l-2.1-0.6
	l-5.8,0.6c-4.2-0.3-7.9-1.5-11.2-3.3l1.2-1.2c-1.8,0-3.3-0.6-4.5-1.2c8.2-3.6,16.1-7.5,24.2-11.2c1.2-3,1.8-6.4,1.8-10l0-27.6
	c-4.2-6.7-8.2-13.6-11.2-20.9l0.9,0.3l0.3-0.9l-1.5-3.3l1.2-0.3l7.9,1.8l4.8-0.3c6.1,2.7,11.5,6.7,16.9,10.6c3,4.5,4.2,9.7,3.9,15.1
	c-0.9,7-1.5,14.2-1.8,21.5l0.3,6.1l0.9,0c4.8-1.8,10-3,15.7-3.3l6.7,0.6c3.3-2.7,7.3-3.9,11.8-3.6c1.2,0.6,1.5,1.5,5.1,5.2
	c4.5,2.7,8.8,5.8,12.7,9.4l0,0.9l2.7,5.8c0.3,3,0.6,5.8,0.9,8.5c0,0-13.7,23-16.7,29c3.3,0.9,7,1.5,10.9,1.2l3.3-0.3l4.8,0.6
	l1.2-0.6c0.3,0.6,1.2,1.2,2.1,0.9l2.1-2.4c3,4.5,6.6,7.9,10.6,10.6l4.8,2.4c5.4,3.3,1.2,5.2,2.4,6.4l0.3,1.8l-0.3,1.2l1.5,8.8
	l-1.8,0l-2.1-0.6l-3,0.9c-15.4-7.6-31.5-12.2-48.1-14.6l-2.4,0.3c-4.5-0.6-9.7-1.2-14.8-0.9c-8.5,0.3-16.4,1.8-23.9,4.8
	c-7,26.9-17.9,52.7-33.1,76.3l-1.2,1.2c-2.4,2.7-4.9,5.4-7.6,7.9l-3.3,0.9l0,0.3c-9.4,1.8-18.8,4.5-27.6,8.4L92.5,261.7z M205.6,105
	c-2.4-0.3-4.8-0.6-7.3-0.3l-19.1,3.9c-1.8,2.4-2.7,4.8-3.3,7.6l0.3,2.7c-1.8,8.5-3.7,16.9-5.5,25.4l0.3,1.2l2.4,0.3
	c6.4-1.2,12.7-2.1,19.4-3C198,130.4,202.3,118,205.6,105z M221.5,259.1l0-0.3l-1.8-1.5l-0.6-0.6l-3.3-3l-0.6-0.6L213,251l-3-3.3
	l-0.9-0.6l-0.6-0.6l-0.9-1.2l-0.9-0.9l-1.2-1.2l-0.9-0.6l-0.9-1.2l0-0.3l-2.1-1.5l0-0.6l-0.9,0l0-0.6l-0.3,0l0-0.6l-0.6,0l0-0.3
	l-0.3,0l0-0.6l-2.7-1.5l-0.6-0.9l-0.9-0.9l-0.9-0.9l-0.9-0.9l0-0.3l-0.3,0l-0.9-0.9l0-0.3l-0.3,0l-0.9-0.9l-0.6-0.6l0-0.6l-0.6,0
	l0-0.3l-0.3,0l0-0.6l-0.6,0l-0.6-0.6l0-0.6l-0.6,0l0-0.6l-3-2.4c-6.3-7.6-10.3-16.1-11.5-25.4l-1.2-0.3l0-0.3l0.9,0
	c6.1,1.2,11.5,3.6,16.6,7.3l0,0.6c4.2,3,8.5,5.8,13.3,8.2l7.9,6.4c2.7,0.6,4.8,1.8,7,3.6l0,0.3l2.7,2.7l0.3,0l0.9,0.6l0,0.6l4.2,2.4
	l0,0.6l2.4,1.2l1.5,1.2l0,0.6l1.8,0.9l0.3,0.9l0.9,0.3l0,0.6l-0.3,0.6c0,0,9.1,10.3,4.5,9.1l0,0.6l0.6,0l1.2,2.1l0.3,0l0.6,1.5
	l0.6,0l1.8,4.8l-0.9,0.3l-5.8,5.1c-0.9,1.2-2.1,1.8-3.9,1.8l-3.6,1.8l-0.6,0L221.5,259.1z"/>
<g>
	<g>
		<path class="st1" d="M500.4,168.9c0,6.4-0.7,16.5-1.7,21.2l-130.9-0.2c6,19.5,20.5,32,40.4,32c16.8,0,32-8,36.7-19.8l43.1,0.1
			l0,19.5c-11.1,24.9-44.5,40.7-80.8,40.6c-56.9-0.1-95.9-38.8-95.8-94.4c0.1-54.2,39.8-91.8,97.4-91.8
			C462.8,76.2,500.5,114.3,500.4,168.9z M365.1,158.9l81.5,0.1c-0.3-23.9-17.1-42.4-41-42.5C383,116.5,368.1,133.7,365.1,158.9z"/>
		<path class="st1" d="M549.4,1.6c18.2,0,31,12.5,30.9,30c0,17.2-12.8,29.6-31,29.6c-17.8,0-30.6-12.5-30.6-29.7
			C518.7,14,531.6,1.6,549.4,1.6z M522.7,83.1l53.5,0.1L576,255.8l-53.5-0.1L522.7,83.1z"/>
		<path class="st1" d="M788.5,168.9l-0.1,89.2c-0.1,48.8-37.8,82.1-93,82c-44.8-0.1-82.1-21.3-91.5-52.3l0-21.9l47.5,0.1
			c3.3,19.5,20.5,33.7,42,33.7c24.2,0,41.4-18.1,41.5-43.7l0-16.5c-12.8,11.4-30.7,18.8-49.8,18.8c-49.8-0.1-86.8-38.1-86.7-89.6
			c0.1-53.5,40.5-92.2,96.4-92.1C749.2,76.6,788.6,115.4,788.5,168.9z M651.8,169.7c0,26.3,17.8,44.8,42.7,44.8
			c25.2,0,42.4-17.8,42.5-44.7c0-27.3-17.1-46.1-42.7-46.2C669.4,123.6,651.9,142.5,651.8,169.7z"/>
		<path class="st1" d="M997.5,170.2l-0.1,86.2l-49.1-0.1l0-20.5c-14.2,17.5-34.7,27.2-58.6,27.2c-50.2-0.1-84.8-38.1-84.7-93
			c0.1-54.2,39.8-93.2,96.1-93.1C957.3,76.9,997.6,116,997.5,170.2z M858.5,170c0,26.6,17.8,45.8,42.7,45.8s42.8-19.1,42.8-45.7
			c0-26.9-17.8-46.1-42.7-46.2C876.4,123.9,858.5,143.1,858.5,170z"/>
	</g>
</g>
</svg>
