<svg xmlns="http://www.w3.org/2000/svg" xmlns:xlink="http://www.w3.org/1999/xlink" width="80" height="80" viewBox="0 0 80 80">
  <defs>
    <path id="-noshadow-a" d="M45.0075827,26.9849212 L58.6675589,52.0427233 L58.6675589,52.0427233 C59.1962482,53.0125487 58.8386367,54.227335 57.8688113,54.7560243 C57.5751398,54.9161159 57.2460077,55 56.9115346,55 L29.5915823,55 L29.5915823,55 C28.4870128,55 27.5915823,54.1045695 27.5915823,53 C27.5915823,52.6655269 27.6754664,52.3363947 27.835558,52.0427233 L41.4955342,26.9849212 L41.4955342,26.9849212 C42.0242235,26.0150958 43.2390097,25.6574843 44.2088351,26.1861736 C44.5463039,26.3701409 44.8236155,26.6474525 45.0075827,26.9849212 Z"/>
  </defs>
  <g fill="none" fill-rule="evenodd">
    <circle cx="40" cy="40" r="40" fill="#FEDE10"/>
    <g transform="rotate(90 43.252 40)">
      <use fill="#1A1D24" xlink:href="#-noshadow-a"/>
      <path stroke="#1A1D24" stroke-width="3" d="M43.6905645,27.7028788 C43.6445727,27.6185116 43.5752448,27.5491837 43.4908776,27.5031919 C43.2484213,27.3710195 42.9447247,27.4604224 42.8125524,27.7028788 L29.1525763,52.7606808 C29.1125534,52.8340987 29.0915823,52.9163817 29.0915823,53 C29.0915823,53.2761424 29.31544,53.5 29.5915823,53.5 L56.9115346,53.5 C56.9951528,53.5 57.0774359,53.479029 57.1508537,53.4390061 C57.3933101,53.3068337 57.482713,53.0031372 57.3505406,52.7606808 L43.6905645,27.7028788 Z"/>
    </g>
  </g>
</svg>
