<svg xmlns="http://www.w3.org/2000/svg" width="94" height="75" viewBox="0 0 94 75">
  <g fill="#FFF" fill-rule="evenodd">
    <path d="M46.5,44.732438 L46.5,69.3165733 C46.5,70.4211428 45.6045695,71.3165733 44.5,71.3165733 C44.043014,71.3165733 43.5998096,71.1600736 43.2441494,70.8731205 L17.3732394,50 L2,50 C0.8954305,50 1.3527075e-16,49.1045695 0,48 L0,28 L-4.4408921e-16,28 C-5.7935996e-16,26.8954305 0.8954305,26 2,26 L2,26 L17.3732394,26 L19.9538961,23.9178793 L46.5,44.732438 Z M46.5,29.4834711 L29.538961,16.1844746 L43.2441494,5.12687946 C44.1038067,4.43329233 45.3629601,4.56791879 46.0565472,5.42757609 C46.3435003,5.78323625 46.5,6.22644066 46.5,6.68342669 L46.5,29.4834711 Z"/>
    <path fill-rule="nonzero" d="M72.1566329 49.6006037C73.7300521 45.6376068 74.5246006 41.4360277 74.5246006 37.0229292 74.5246006 28.4169943 71.1701125 20.537836 64.6477563 13.5803694 62.7591465 11.5657692 59.5949695 11.4636338 57.5803694 13.3522437 55.5657692 15.2408535 55.4636338 18.4050305 57.3522437 20.4196306 62.1960217 25.5865401 64.5246006 31.0560012 64.5246006 37.0229292 64.5246006 39.1037572 64.2817156 41.1073652 63.7914395 43.0415316L72.1566329 49.6006037zM65.8526801 59.9066985C65.833138 59.929563 65.8135634 59.9524163 65.7939562 59.9752583 63.9953473 62.0706025 60.8386746 62.3111539 58.7433305 60.512545 56.7380981 58.7912866 56.4315555 55.8262617 57.9852919 53.737951L65.8526803 59.9066987zM87.8842873 61.9325145C91.6381242 54.2736267 93.5246006 45.9846017 93.5246006 37.1197458 93.5246006 24.371237 89.2878866 12.6551696 80.9114722 2.13545589 79.191357-.0247905726 76.0457023-.381587441 73.8854559 1.33852778 71.7252094 3.05864299 71.3684126 6.20429765 73.0885278 8.36454411 80.0782475 17.1427453 83.5246006 26.673175 83.5246006 37.1197458 83.5246006 43.7026182 82.2873971 49.8473644 79.7992245 55.5930903L87.8842873 61.9325145zM81.4224489 72.1148127C79.6811341 73.7531613 76.9622518 73.9487679 74.9889887 72.4603066 72.9644206 70.9331451 72.4288147 68.1642934 73.6428143 66.014872L81.4224489 72.1148127zM1.26357697 4.07202357L90.263577 74.0720236C91.1317816 74.7548811 92.389166 74.6046277 93.0720236 73.736423 93.7548811 72.8682184 93.6046277 71.610834 92.736423 70.9279764L3.73642303.927976434C2.86821839.24511885 1.61083402.395372329.927976434 1.26357697.24511885 2.13178161.395372329 3.38916598 1.26357697 4.07202357z"/>
  </g>
</svg>
