<svg xmlns="http://www.w3.org/2000/svg" width="94" height="75" viewBox="0 0 94 75">
  <g fill="#FFF" fill-rule="evenodd">
    <path d="M17.3732394,26 L2,26 L2,26 C0.8954305,26 -5.7935996e-16,26.8954305 -4.4408921e-16,28 L0,28 L0,48 C1.3527075e-16,49.1045695 0.8954305,50 2,50 L17.3732394,50 L43.2441494,70.8731205 C43.5998096,71.1600736 44.043014,71.3165733 44.5,71.3165733 C45.6045695,71.3165733 46.5,70.4211428 46.5,69.3165733 L46.5,6.68342669 C46.5,6.22644066 46.3435003,5.78323625 46.0565472,5.42757609 C45.3629601,4.56791879 44.1038067,4.43329233 43.2441494,5.12687946 L17.3732394,26 Z"/>
    <path fill-rule="nonzero" d="M57.3522437,20.4196306 C62.1960217,25.5865401 64.5246006,31.0560012 64.5246006,37.0229292 C64.5246006,43.0958813 62.4557554,48.5110885 58.2060438,53.4619193 C56.4074349,55.5572634 56.6479863,58.7139361 58.7433305,60.512545 C60.8386746,62.3111539 63.9953473,62.0706025 65.7939562,59.9752583 C71.5770455,53.2380726 74.5246006,45.5228401 74.5246006,37.0229292 C74.5246006,28.4169943 71.1701125,20.537836 64.6477563,13.5803694 C62.7591465,11.5657692 59.5949695,11.4636338 57.5803694,13.3522437 C55.5657692,15.2408535 55.4636338,18.4050305 57.3522437,20.4196306 Z"/>
    <path fill-rule="nonzero" d="M73.0885278,8.36454411 C80.0782475,17.1427453 83.5246006,26.673175 83.5246006,37.1197458 C83.5246006,47.6293597 80.3711661,57.0222599 74.0082822,65.4575775 C72.3453466,67.6621423 72.7844238,70.7973709 74.9889887,72.4603066 C77.1935535,74.1232422 80.3287821,73.684165 81.9917178,71.4796001 C89.6616347,61.3115401 93.5246006,49.8052116 93.5246006,37.1197458 C93.5246006,24.371237 89.2878866,12.6551696 80.9114722,2.13545589 C79.191357,-0.0247905726 76.0457023,-0.381587441 73.8854559,1.33852778 C71.7252094,3.05864299 71.3684126,6.20429765 73.0885278,8.36454411 Z"/>
  </g>
</svg>
